<svg xmlns="http://www.w3.org/2000/svg" xmlns:xlink="http://www.w3.org/1999/xlink" width="306" height="325" viewBox="0 0 306 325">
  <defs>
    <clipPath id="clip-path">
      <rect id="Rectangle_1" data-name="Rectangle 1" width="100%" height="100%" transform="translate(-4 -2)" fill="#fff" stroke="#707070" stroke-width="1"/>
    </clipPath>
    <linearGradient id="linear-gradient" y1="0.5" x2="1" y2="0.5" gradientUnits="objectBoundingBox">
      <stop offset="0" stop-color="#faae66"/>
      <stop offset="1" stop-color="#faae67"/>
      <stop offset="1" stop-color="#f79868"/>
      <stop offset="1" stop-color="#f7904e"/>
      <stop offset="1" stop-color="#fcbf94"/>
    </linearGradient>
    <linearGradient id="linear-gradient-2" x1="0.391" y1="0.502" x2="0.005" y2="1.086" gradientUnits="objectBoundingBox">
      <stop offset="1" stop-color="#f7914f"/>
      <stop offset="1" stop-color="#f7d6bf"/>
    </linearGradient>
  </defs>
  <g id="Circular_background" transform="translate(4 2)" clip-path="url(#clip-path)">
    <g id="Group_2" data-name="Group 2" transform="translate(-2.603 -5)">
      <path id="Path_1" data-name="Path 1" d="M304.467,0V252.929c-39.112,44.791-97.831,73.263-163.509,73.263C87.836,326.192,39.233,307.553,1.9,276.7c-.635-.524-1.271-1.009-1.9-1.583l1.9,1.23V0Z" transform="translate(0.038)" fill="url(#linear-gradient)"/>
      <g id="Group_1" data-name="Group 1" transform="translate(-4.397)">
        <path id="Path_3" data-name="Path 3" d="M0,272.78l1.9,1.23v.373C1.261,273.839.625,273.315,0,272.78Z" transform="translate(0 2.338)" fill="#fff"/>
        <path id="Path_2" data-name="Path 2" d="M308.885,1.372V209.258c-37.864,60.323-107.6,100.8-187.4,100.8A226.137,226.137,0,0,1,1.88,276.348V0h306.1C308.312.454,308.6.908,308.885,1.372Z" transform="translate(0.016)" fill="url(#linear-gradient-2)"/>
      </g>
    </g>
  </g>
</svg>
