<?xml version="1.0" encoding="utf-8"?>
<!-- Generator: Adobe Illustrator 23.0.3, SVG Export Plug-In . SVG Version: 6.00 Build 0)  -->
<svg version="1.1" id="Layer_1" xmlns="http://www.w3.org/2000/svg" xmlns:xlink="http://www.w3.org/1999/xlink" x="0px" y="0px"
	 viewBox="0 0 417.4 417.4" style="enable-background:new 0 0 417.4 417.4;" xml:space="preserve">
<style type="text/css">
	.st0{fill:#0033FF;}
</style>
<title>Renata Logo</title>
<g>
	<path class="st0" d="M302.7,233.6h-38.4c-3,0-5.9,0.4-8.8,1.1c-7.1,2.5-15.9,13.1-3.5,22.4c1.7,1.1,3.7,1.6,5.7,1.5l135.4,0.3h18.7
		l-0.3-125.5c0-70.4-57-127.5-127.4-127.5c0,0-0.1,0-0.1,0H133.2C62.8,5.8,5.7,62.9,5.7,133.3l0,0V284c0,70.4,57,127.5,127.4,127.5
		c0,0,0.1,0,0.1,0h150.7c53.2,0,108.7-33.6,127.8-79.9l-27.9,0.2l0,0c-37.3-0.9-175.3,0.8-175.3,0.8s-44.1,5.9-37.3-35v-74.8
		c0,0-3.9-37,32.1-35c0,0,59.8,8.8,64-22.4c0,0,6.9-46.7-21.1-42.7h-72.9c0,0-23.3-2.9-21.4,43.8v159.3L82,326.7
		c2.5-6.5-0.3-216.7-0.3-216.7s-4.9-41.8,41.8-35l160.4-0.8c0,0,46.7-8,50.6,37.6v88.2C334.7,200.1,337.8,235.9,302.7,233.6z"/>
	<g>
		<path class="st0" d="M194.3,279.6h15.9c5,0,8.5,1.1,10.3,3.3c1.7,2.1,2.6,4.7,2.5,7.4c0.1,2.7-1,5.4-2.8,7.4
			c-2.1,2.1-4.7,3.7-7.6,4.4l13.4,17.5h-7.9l-12.1-16.6h-5v16.6h-6.8V279.6z M201.1,283.8v14.5h5.4c2.5,0.2,5-0.5,7.1-2
			c3.1-2.8,3.3-7.6,0.5-10.7c0,0-0.1-0.1-0.1-0.1c-1.4-1.2-3.7-1.8-6.8-1.8H201.1z"/>
		<path class="st0" d="M232.1,279.6h26.6l-0.8,4.9h-19v12.3h16.8l-0.8,4.8h-15.9v13.1h20.2l-0.8,4.9h-26.2L232.1,279.6z"/>
		<path class="st0" d="M298.8,279.6v39.9h-7.1l-16.3-27l-2.3-5.2l-0.4,0.2l1.2,5.9v26.2h-6.8v-39.9h7.2l16.3,27.8l2.4,5.4l0.4-0.2
			l-1.3-6.7v-26.2L298.8,279.6z"/>
		<path class="st0" d="M328.3,279.3l13.7,40.2h-7.1l-3.3-10.6h-15.7l-3.4,10.6h-6.5l13.7-39.5L328.3,279.3z M323.6,284.4l-6.2,19.9
			h12.6l-6-19.9L323.6,284.4z"/>
		<path class="st0" d="M362.2,284.4v35.1h-6.8v-35.1h-12.7l0.6-4.8h31l-0.6,4.8H362.2z"/>
		<path class="st0" d="M397.2,279.3l13.6,40.2h-7.2l-3.3-10.6h-15.5l-3.5,10.6h-6.5l13.7-39.5L397.2,279.3z M392.6,284.4l-6.2,19.9
			H399l-6-19.9L392.6,284.4z"/>
	</g>
</g>
</svg>
