<svg id="Group_34" data-name="Group 34" xmlns="http://www.w3.org/2000/svg" width="28.997" height="28.676" viewBox="0 0 28.997 28.676">
  <path id="Path_22" data-name="Path 22" d="M258.913,620.615a3.393,3.393,0,1,0-3.544-3.39A3.469,3.469,0,0,0,258.913,620.615Z" transform="translate(-247.379 -591.94)"/>
  <path id="Path_23" data-name="Path 23" d="M271.037,613.836a3.393,3.393,0,1,0,3.544,3.389A3.469,3.469,0,0,0,271.037,613.836Z" transform="translate(-249.163 -591.94)"/>
  <path id="Path_24" data-name="Path 24" d="M273.912,605.437H255.437l-.362-2.006H270.26a1.085,1.085,0,0,0,1.012-.657l3.616-8.717a1.024,1.024,0,0,0-.611-1.346,1.136,1.136,0,0,0-.4-.073H253.195l-.867-4.773a1.073,1.073,0,0,0-1.085-.865h-4.158a1.039,1.039,0,1,0,0,2.076h3.254l3.109,17.572a1.073,1.073,0,0,0,1.085.865h19.38a1.039,1.039,0,1,0,0-2.076Z" transform="translate(-246 -587)"/>
</svg>
